<svg width="19" height="19" viewBox="0 0 19 19" fill="none" xmlns="http://www.w3.org/2000/svg">
<path d="M7.79309 11.2069L18 1" stroke="#363636" stroke-linecap="round" stroke-linejoin="round"/>
<path d="M18 1L11.9686 17.7023C11.9279 17.7911 11.8626 17.8664 11.7803 17.9192C11.6981 17.9719 11.6024 18 11.5047 18C11.407 18 11.3113 17.9719 11.229 17.9192C11.1468 17.8664 11.0814 17.7911 11.0407 17.7023L7.79306 11.2069L1.29774 7.95928C1.2089 7.91856 1.13362 7.8532 1.08084 7.77096C1.02806 7.68872 1 7.59305 1 7.49532C1 7.3976 1.02806 7.30193 1.08084 7.21969C1.13362 7.13745 1.2089 7.07208 1.29774 7.03137L18 1Z" stroke="#363636" stroke-linecap="round" stroke-linejoin="round"/>
</svg>
