<svg width="19" height="19" viewBox="0 0 19 19" fill="none" xmlns="http://www.w3.org/2000/svg">
<path d="M9.5 18C14.1944 18 18 14.1944 18 9.5C18 4.80558 14.1944 1 9.5 1C4.80558 1 1 4.80558 1 9.5C1 14.1944 4.80558 18 9.5 18Z" stroke="#363636" stroke-linecap="round" stroke-linejoin="round"/>
<path d="M9 11C10.6569 11 12 9.65685 12 8C12 6.34315 10.6569 5 9 5C7.34315 5 6 6.34315 6 8C6 9.65685 7.34315 11 9 11Z" stroke="#363636" stroke-linecap="round" stroke-linejoin="round"/>
<path d="M4 15.9958C4.23338 15.4187 4.71093 14.9129 5.3618 14.5534C6.01267 14.1939 6.80219 13.9998 7.61324 14H11.3849C12.197 13.9998 12.9875 14.1943 13.6388 14.5547C14.2901 14.915 14.7675 15.4219 15 16" stroke="#363636" stroke-linecap="round" stroke-linejoin="round"/>
</svg>
