<svg width="19" height="20" viewBox="0 0 19 20" fill="none" xmlns="http://www.w3.org/2000/svg">
<path d="M5.33337 9.05556V5.27778C5.33337 4.27585 5.7548 3.31496 6.50495 2.60649C7.25509 1.89801 8.27251 1.5 9.33337 1.5C10.3942 1.5 11.4117 1.89801 12.1618 2.60649C12.9119 3.31496 13.3334 4.27585 13.3334 5.27778L5.33337 9.05556ZM9.33337 12.8333V14.7222V12.8333ZM3.33337 18.5H15.3334C15.8638 18.5 16.3725 18.301 16.7476 17.9468C17.1227 17.5925 17.3334 17.1121 17.3334 16.6111V10.9444C17.3334 10.4435 17.1227 9.96303 16.7476 9.6088C16.3725 9.25456 15.8638 9.05556 15.3334 9.05556H3.33337C2.80294 9.05556 2.29423 9.25456 1.91916 9.6088C1.54409 9.96303 1.33337 10.4435 1.33337 10.9444V16.6111C1.33337 17.1121 1.54409 17.5925 1.91916 17.9468C2.29423 18.301 2.80294 18.5 3.33337 18.5Z" stroke="#363636" stroke-width="1.5" stroke-linecap="round" stroke-linejoin="round"/>
</svg>
